{"asset":{"version":"2.0","generator":"THREE.GLTFExporter"},"scenes":[{"nodes":[0]}],"scene":0,"nodes":[{"mesh":0}],"bufferViews":[{"buffer":0,"byteOffset":0,"byteLength":9288,"target":34962,"byteStride":12},{"buffer":0,"byteOffset":9288,"byteLength":1548,"target":34963}],"buffers":[{"byteLength":10836,"uri":"data:application/octet-stream;base64,"}],"accessors":[{"bufferView":0,"componentType":5126,"count":774,"max":[49,4.498985290527344,49],"min":[-49,-0.0010148286819458008,-49],"type":"VEC3"},{"bufferView":1,"componentType":5123,"count":774,"max":[773],"min":[0],"type":"SCALAR"}],"materials":[{"pbrMetallicRoughness":{"metallicFactor":0,"roughnessFactor":1}}],"meshes":[{"primitives":[{"mode":4,"attributes":{"POSITION":0},"indices":1,"material":0}]}]}