{
	"asset":{
		"generator":"Khronos glTF Blender I/O v3.5.30",
		"version":"2.0"
	},
	"extensionsUsed":[
		"KHR_materials_ior"
	],
	"scene":0,
	"scenes":[
		{
			"name":"Scene",
			"nodes":[
				0,
				1,
				2,
				3,
				4,
				5,
				6,
				7
			]
		}
	],
	"nodes":[
		{
			"mesh":0,
			"name":"groundbox",
			"translation":[
				0,
				-0.5,
				0
			]
		},
		{
			"mesh":1,
			"name":"wall",
			"translation":[
				0,
				2.6168854236602783,
				-30.231727600097656
			]
		},
		{
			"mesh":2,
			"name":"brickcube",
			"translation":[
				-10.022027015686035,
				1.5583802461624146,
				0
			]
		},
		{
			"mesh":3,
			"name":"ducky",
			"translation":[
				0,
				0.9386243224143982,
				0
			]
		},
		{
			"mesh":4,
			"name":"ball",
			"translation":[
				0,
				0.2044910192489624,
				-2.805109977722168
			]
		},
		{
			"mesh":2,
			"name":"brickcube.001",
			"translation":[
				13.119945526123047,
				1.5583802461624146,
				0
			]
		},
		{
			"mesh":2,
			"name":"brickcube.002",
			"translation":[
				13.119945526123047,
				1.5583802461624146,
				14.82465934753418
			]
		},
		{
			"mesh":2,
			"name":"brickcube.003",
			"translation":[
				2.2557430267333984,
				1.5583802461624146,
				14.82465934753418
			]
		}
	],
	"materials":[
		{
			"name":"ground",
			"normalTexture":{
				"index":0,
				"scale":10
			},
			"pbrMetallicRoughness":{
				"baseColorTexture":{
					"index":1
				},
				"metallicFactor":0,
				"metallicRoughnessTexture":{
					"index":2
				}
			}
		},
		{
			"doubleSided":true,
			"name":"wall",
			"pbrMetallicRoughness":{
				"baseColorTexture":{
					"index":3
				},
				"metallicFactor":0,
				"roughnessFactor":0.5
			}
		},
		{
			"doubleSided":true,
			"extensions":{
				"KHR_materials_specular":{
					"specularColorFactor":[
						0,
						0,
						0
					]
				},
				"KHR_materials_ior":{
					"ior":1.4500000476837158
				}
			},
			"name":"matte",
			"pbrMetallicRoughness":{
				"baseColorTexture":{
					"index":4
				},
				"metallicFactor":0,
				"roughnessFactor":0.5
			}
		},
		{
			"doubleSided":true,
			"name":"Material.001",
			"pbrMetallicRoughness":{
				"baseColorFactor":[
					0.8000000715255737,
					0.020902419462800026,
					0.0336466059088707,
					1
				],
				"metallicFactor":0,
				"roughnessFactor":0.5
			}
		}
	],
	"meshes":[
		{
			"name":"Cube.002",
			"primitives":[
				{
					"attributes":{
						"POSITION":0,
						"TEXCOORD_0":1,
						"NORMAL":2
					},
					"indices":3,
					"material":0
				}
			]
		},
		{
			"name":"Cube.003",
			"primitives":[
				{
					"attributes":{
						"POSITION":4,
						"TEXCOORD_0":5,
						"NORMAL":6
					},
					"indices":7,
					"material":1
				}
			]
		},
		{
			"name":"Cube.007",
			"primitives":[
				{
					"attributes":{
						"POSITION":8,
						"TEXCOORD_0":9,
						"NORMAL":10
					},
					"indices":11,
					"material":1
				}
			]
		},
		{
			"name":"Cube.009",
			"primitives":[
				{
					"attributes":{
						"POSITION":12,
						"TEXCOORD_0":13,
						"NORMAL":14
					},
					"indices":15,
					"material":2
				}
			]
		},
		{
			"name":"Sphere.002",
			"primitives":[
				{
					"attributes":{
						"POSITION":16,
						"TEXCOORD_0":17,
						"NORMAL":18
					},
					"indices":19,
					"material":3
				}
			]
		}
	],
	"textures":[
		{
			"sampler":0,
			"source":0
		},
		{
			"sampler":0,
			"source":1
		},
		{
			"sampler":0,
			"source":2
		},
		{
			"sampler":0,
			"source":3
		},
		{
			"sampler":1,
			"source":4
		}
	],
	"images":[
		{
			"mimeType":"image/jpeg",
			"name":"Stylized_Stone_Floor_005_normal",
			"uri":"textures/Stylized_Stone_Floor_005_normal.jpg"
		},
		{
			"mimeType":"image/jpeg",
			"name":"Stylized_Stone_Floor_005_basecolor",
			"uri":"textures/Stylized_Stone_Floor_005_basecolor.jpg"
		},
		{
			"mimeType":"image/png",
			"name":"Stylized_Stone_Floor_005_roughness",
			"uri":"textures/Stylized_Stone_Floor_005_roughness.png"
		},
		{
			"mimeType":"image/jpeg",
			"name":"brickwall",
			"uri":"textures/brickwall.jpg"
		},
		{
			"mimeType":"image/png",
			"name":"palette",
			"uri":"textures/palette.png"
		}
	],
	"accessors":[
		{
			"bufferView":0,
			"componentType":5126,
			"count":24,
			"max":[
				50,
				0.4997750520706177,
				50
			],
			"min":[
				-50,
				-0.4997750520706177,
				-50
			],
			"type":"VEC3"
		},
		{
			"bufferView":1,
			"componentType":5126,
			"count":24,
			"type":"VEC2"
		},
		{
			"bufferView":2,
			"componentType":5126,
			"count":24,
			"type":"VEC3"
		},
		{
			"bufferView":3,
			"componentType":5123,
			"count":36,
			"type":"SCALAR"
		},
		{
			"bufferView":4,
			"componentType":5126,
			"count":24,
			"max":[
				0.46755313873291016,
				3.1199538707733154,
				4.884470462799072
			],
			"min":[
				-0.46755313873291016,
				-2.6483187675476074,
				-4.884470462799072
			],
			"type":"VEC3"
		},
		{
			"bufferView":5,
			"componentType":5126,
			"count":24,
			"type":"VEC2"
		},
		{
			"bufferView":6,
			"componentType":5126,
			"count":24,
			"type":"VEC3"
		},
		{
			"bufferView":7,
			"componentType":5123,
			"count":36,
			"type":"SCALAR"
		},
		{
			"bufferView":8,
			"componentType":5126,
			"count":14,
			"max":[
				2.3984546661376953,
				1.5807006359100342,
				2.3984546661376953
			],
			"min":[
				-2.3984546661376953,
				-1.5549219846725464,
				-2.3984546661376953
			],
			"type":"VEC3"
		},
		{
			"bufferView":9,
			"componentType":5126,
			"count":14,
			"type":"VEC2"
		},
		{
			"bufferView":10,
			"componentType":5126,
			"count":14,
			"type":"VEC3"
		},
		{
			"bufferView":11,
			"componentType":5123,
			"count":36,
			"type":"SCALAR"
		},
		{
			"bufferView":12,
			"componentType":5126,
			"count":4417,
			"max":[
				0.6537764668464661,
				0.9301486015319824,
				0.5318828225135803
			],
			"min":[
				-0.6537764668464661,
				-0.9416473507881165,
				-0.5208508968353271
			],
			"type":"VEC3"
		},
		{
			"bufferView":13,
			"componentType":5126,
			"count":4417,
			"type":"VEC2"
		},
		{
			"bufferView":14,
			"componentType":5126,
			"count":4417,
			"type":"VEC3"
		},
		{
			"bufferView":15,
			"componentType":5123,
			"count":21852,
			"type":"SCALAR"
		},
		{
			"bufferView":16,
			"componentType":5126,
			"count":115,
			"max":[
				0.19720745086669922,
				0.19720745086669922,
				0.19720745086669922
			],
			"min":[
				-0.19720745086669922,
				-0.19720745086669922,
				-0.19720745086669922
			],
			"type":"VEC3"
		},
		{
			"bufferView":17,
			"componentType":5126,
			"count":115,
			"type":"VEC2"
		},
		{
			"bufferView":18,
			"componentType":5126,
			"count":115,
			"type":"VEC3"
		},
		{
			"bufferView":19,
			"componentType":5123,
			"count":504,
			"type":"SCALAR"
		}
	],
	"bufferViews":[
		{
			"buffer":0,
			"byteLength":288,
			"byteOffset":0,
			"target":34962
		},
		{
			"buffer":0,
			"byteLength":192,
			"byteOffset":288,
			"target":34962
		},
		{
			"buffer":0,
			"byteLength":288,
			"byteOffset":480,
			"target":34962
		},
		{
			"buffer":0,
			"byteLength":72,
			"byteOffset":768,
			"target":34963
		},
		{
			"buffer":0,
			"byteLength":288,
			"byteOffset":840,
			"target":34962
		},
		{
			"buffer":0,
			"byteLength":192,
			"byteOffset":1128,
			"target":34962
		},
		{
			"buffer":0,
			"byteLength":288,
			"byteOffset":1320,
			"target":34962
		},
		{
			"buffer":0,
			"byteLength":72,
			"byteOffset":1608,
			"target":34963
		},
		{
			"buffer":0,
			"byteLength":168,
			"byteOffset":1680,
			"target":34962
		},
		{
			"buffer":0,
			"byteLength":112,
			"byteOffset":1848,
			"target":34962
		},
		{
			"buffer":0,
			"byteLength":168,
			"byteOffset":1960,
			"target":34962
		},
		{
			"buffer":0,
			"byteLength":72,
			"byteOffset":2128,
			"target":34963
		},
		{
			"buffer":0,
			"byteLength":53004,
			"byteOffset":2200,
			"target":34962
		},
		{
			"buffer":0,
			"byteLength":35336,
			"byteOffset":55204,
			"target":34962
		},
		{
			"buffer":0,
			"byteLength":53004,
			"byteOffset":90540,
			"target":34962
		},
		{
			"buffer":0,
			"byteLength":43704,
			"byteOffset":143544,
			"target":34963
		},
		{
			"buffer":0,
			"byteLength":1380,
			"byteOffset":187248,
			"target":34962
		},
		{
			"buffer":0,
			"byteLength":920,
			"byteOffset":188628,
			"target":34962
		},
		{
			"buffer":0,
			"byteLength":1380,
			"byteOffset":189548,
			"target":34962
		},
		{
			"buffer":0,
			"byteLength":1008,
			"byteOffset":190928,
			"target":34963
		}
	],
	"samplers":[
		{
			"magFilter":9729,
			"minFilter":9987
		},
		{
			"magFilter":9728,
			"minFilter":9984
		}
	],
	"buffers":[
		{
			"byteLength":191936,
			"uri":"step4a.bin"
		}
	]
}
